<svg xmlns="http://www.w3.org/2000/svg" version="1.0" width="1096.000000pt" height="1096.000000pt" viewBox="0 0 1096.000000 1096.000000" preserveAspectRatio="xMidYMid meet">
<g transform="translate(0.000000,1096.000000) scale(0.100000,-0.100000)" fill="#9966ff" stroke="none">
<path d="M5145 10913 c-440 -35 -667 -71 -1020 -160 -1098 -277 -2095 -906 -2828 -1785 -963 -1156 -1401 -2650 -1217 -4153 75 -609 246 -1177 525 -1740 165 -333 306 -563 526 -855 169 -224 287 -360 508 -580 476 -475 991 -832 1593 -1104 1254 -566 2667 -636 3979 -196 1374 460 2505 1454 3145 2765 719 1471 736 3171 48 4670 -36 80 -69 145 -73 145 -3 0 -196 -279 -429 -620 l-422 -619 35 -133 c48 -185 81 -354 107 -553 19 -145 22 -218 22 -500 1 -354 -9 -475 -60 -755 -273 -1493 -1351 -2735 -2790 -3216 -274 -91 -547 -151 -864 -191 -205 -25 -704 -25 -915 0 -304 37 -565 94 -845 186 -1061 350 -1936 1107 -2439 2111 -227 453 -368 950 -422 1485 -26 256 -14 677 27 970 174 1230 918 2345 1995 2990 1357 812 3060 787 4388 -65 45 -29 83 -51 85 -49 1 2 154 240 341 528 319 495 337 525 319 538 -10 8 -80 52 -154 97 -742 455 -1577 722 -2455 786 -126 9 -610 11 -710 3z"/>

</g>
<g transform="translate(0.000000,1096.000000) scale(0.100000,-0.100000)" fill="#00000" stroke="none">
<path d="M9548 10504 c-216 -39 -438 -173 -576 -347 -27 -34 -717 -1054 -1533 -2267 -2013 -2992 -2034 -3023 -2045 -3027 -5 -2 -455 346 -999 773 -545 427 -1013 793 -1040 814 -320 238 -755 248 -1090 25 -229 -152 -389 -394 -451 -685 -26 -123 -25 -353 4 -476 53 -232 180 -455 335 -587 123 -104 2898 -2275 2961 -2315 85 -55 207 -105 308 -126 147 -30 349 -18 494 29 155 51 331 172 436 300 104 126 4187 6200 4245 6315 163 323 164 697 1 1029 -84 170 -229 329 -387 425 -89 54 -240 109 -341 125 -88 14 -228 12 -322 -5z"/>
</g>
</svg>